<svg width="900" height="600" viewBox="0 0 900 600" fill="none" xmlns="http://www.w3.org/2000/svg">
  <!-- Background -->
  <rect width="900" height="600" rx="40" fill="#FDF4FF"/>
  
  <!-- Header -->
  <text x="60" y="55" fill="#7C3AED" font-family="system-ui" font-size="11" font-weight="600" letter-spacing="0.1em">MENU + BRANDING</text>
  <text x="60" y="85" fill="#1E1B4B" font-family="system-ui" font-size="24" font-weight="700">Brand Refresh Services</text>
  
  <!-- Before/After Cards -->
  <!-- Before -->
  <rect x="40" y="110" width="400" height="450" rx="24" fill="white" stroke="#E5E7EB"/>
  <rect x="55" y="125" width="80" height="28" rx="6" fill="#EF4444" opacity="0.2"/>
  <text x="75" y="144" fill="#DC2626" font-family="system-ui" font-size="11" font-weight="600">BEFORE</text>
  
  <!-- Old Menu Style -->
  <rect x="55" y="165" width="370" height="380" rx="16" fill="#F9FAFB"/>
  <rect x="70" y="180" width="340" height="60" rx="8" fill="#E5E7EB"/>
  <text x="85" y="220" fill="#6B7280" font-family="system-ui" font-size="16" font-weight="600">BURGER COMBO</text>
  <text x="350" y="220" fill="#6B7280" font-family="system-ui" font-size="14">$12.99</text>
  
  <rect x="70" y="255" width="340" height="60" rx="8" fill="#E5E7EB"/>
  <text x="85" y="295" fill="#6B7280" font-family="system-ui" font-size="16" font-weight="600">CHICKEN SALAD</text>
  <text x="350" y="295" fill="#6B7280" font-family="system-ui" font-size="14">$10.99</text>
  
  <rect x="70" y="330" width="340" height="60" rx="8" fill="#E5E7EB"/>
  <text x="85" y="370" fill="#6B7280" font-family="system-ui" font-size="16" font-weight="600">FISH TACOS</text>
  <text x="350" y="370" fill="#6B7280" font-family="system-ui" font-size="14">$11.99</text>
  
  <rect x="70" y="405" width="340" height="60" rx="8" fill="#E5E7EB"/>
  <text x="85" y="445" fill="#6B7280" font-family="system-ui" font-size="16" font-weight="600">PASTA BOWL</text>
  <text x="350" y="445" fill="#6B7280" font-family="system-ui" font-size="14">$13.99</text>
  
  <!-- Issues -->
  <rect x="70" y="480" width="340" height="50" rx="8" fill="#FEE2E2"/>
  <text x="85" y="510" fill="#DC2626" font-family="system-ui" font-size="10">No photos, outdated layout, low conversion</text>
  
  <!-- After -->
  <rect x="460" y="110" width="400" height="450" rx="24" fill="white" stroke="#7C3AED" stroke-width="2"/>
  <rect x="475" y="125" width="80" height="28" rx="6" fill="#10B981" opacity="0.2"/>
  <text x="498" y="144" fill="#c24215" font-family="system-ui" font-size="11" font-weight="600">AFTER</text>
  
  <!-- New Menu Style -->
  <rect x="475" y="165" width="370" height="380" rx="16" fill="#FAFAFA"/>
  
  <!-- Menu Item 1 -->
  <rect x="490" y="180" width="340" height="80" rx="12" fill="white" stroke="#E5E7EB"/>
  <rect x="505" y="195" width="50" height="50" rx="8" fill="#FED7AA"/>
  <circle cx="530" cy="220" r="15" fill="#F97316"/>
  <text x="570" y="215" fill="#1F2937" font-family="system-ui" font-size="14" font-weight="700">Classic Smash Burger</text>
  <text x="570" y="235" fill="#6B7280" font-family="system-ui" font-size="10">Double patty, secret sauce, brioche bun</text>
  <text x="780" y="225" fill="#7C3AED" font-family="system-ui" font-size="14" font-weight="700">$12.99</text>
  
  <!-- Menu Item 2 -->
  <rect x="490" y="270" width="340" height="80" rx="12" fill="white" stroke="#E5E7EB"/>
  <rect x="505" y="285" width="50" height="50" rx="8" fill="#BBF7D0"/>
  <circle cx="530" cy="310" r="15" fill="#22C55E"/>
  <text x="570" y="305" fill="#1F2937" font-family="system-ui" font-size="14" font-weight="700">Garden Power Bowl</text>
  <text x="570" y="325" fill="#6B7280" font-family="system-ui" font-size="10">Grilled chicken, quinoa, avocado</text>
  <text x="780" y="315" fill="#7C3AED" font-family="system-ui" font-size="14" font-weight="700">$10.99</text>
  
  <!-- Menu Item 3 -->
  <rect x="490" y="360" width="340" height="80" rx="12" fill="white" stroke="#E5E7EB"/>
  <rect x="505" y="375" width="50" height="50" rx="8" fill="#FEF3C7"/>
  <circle cx="530" cy="400" r="15" fill="#F59E0B"/>
  <text x="570" y="395" fill="#1F2937" font-family="system-ui" font-size="14" font-weight="700">Baja Fish Tacos</text>
  <text x="570" y="415" fill="#6B7280" font-family="system-ui" font-size="10">Beer-battered cod, chipotle crema</text>
  <text x="780" y="405" fill="#7C3AED" font-family="system-ui" font-size="14" font-weight="700">$11.99</text>
  
  <!-- Menu Item 4 -->
  <rect x="490" y="450" width="340" height="80" rx="12" fill="white" stroke="#7C3AED" stroke-width="2"/>
  <rect x="505" y="465" width="50" height="50" rx="8" fill="#EDE9FE"/>
  <circle cx="530" cy="490" r="15" fill="#7C3AED"/>
  <text x="570" y="485" fill="#1F2937" font-family="system-ui" font-size="14" font-weight="700">Truffle Pasta</text>
  <text x="570" y="505" fill="#6B7280" font-family="system-ui" font-size="10">Fresh fettuccine, black truffle, parmesan</text>
  <text x="780" y="495" fill="#7C3AED" font-family="system-ui" font-size="14" font-weight="700">$13.99</text>
  <rect x="780" y="460" width="40" height="18" rx="9" fill="#7C3AED"/>
  <text x="788" y="473" fill="white" font-family="system-ui" font-size="8" font-weight="600">HOT</text>
  
  <!-- Results Card -->
  <rect x="475" y="540" width="340" height="22" rx="6" fill="#ECFDF5"/>
  <text x="490" y="556" fill="#c24215" font-family="system-ui" font-size="10" font-weight="500">+34% conversion rate | +$2.40 avg ticket</text>
</svg>
