<svg width="900" height="600" viewBox="0 0 900 600" fill="none" xmlns="http://www.w3.org/2000/svg">
  <!-- Background -->
  <rect width="900" height="600" rx="40" fill="#F8F7FF"/>
  
  <!-- Main Dashboard Card -->
  <rect x="40" y="60" width="540" height="400" rx="24" fill="white" stroke="#E9D5FF" stroke-width="1.5"/>
  
  <!-- Dashboard Header -->
  <rect x="60" y="80" width="140" height="28" rx="6" fill="#7C3AED"/>
  <text x="90" y="100" fill="white" font-family="system-ui" font-size="12" font-weight="600">Dashboard</text>
  
  <!-- Stats Row -->
  <rect x="60" y="125" width="155" height="70" rx="12" fill="#F5F3FF"/>
  <text x="75" y="150" fill="#6B7280" font-family="system-ui" font-size="10">Active Orders</text>
  <text x="75" y="178" fill="#1E1B4B" font-family="system-ui" font-size="22" font-weight="700">247</text>
  <circle cx="180" cy="165" r="16" fill="#10B981"/>
  <path d="M173 165 L178 170 L188 160" stroke="white" stroke-width="2" fill="none"/>
  
  <rect x="230" y="125" width="155" height="70" rx="12" fill="#F5F3FF"/>
  <text x="245" y="150" fill="#6B7280" font-family="system-ui" font-size="10">Revenue Today</text>
  <text x="245" y="178" fill="#1E1B4B" font-family="system-ui" font-size="22" font-weight="700">$4,812</text>
  
  <rect x="400" y="125" width="155" height="70" rx="12" fill="#F5F3FF"/>
  <text x="415" y="150" fill="#6B7280" font-family="system-ui" font-size="10">Avg Delivery</text>
  <text x="415" y="178" fill="#1E1B4B" font-family="system-ui" font-size="22" font-weight="700">24 min</text>
  
  <!-- Chart Area -->
  <rect x="60" y="210" width="500" height="180" rx="12" fill="#FAFAFA"/>
  <text x="75" y="235" fill="#6B7280" font-family="system-ui" font-size="11">Weekly Order Volume</text>
  
  <!-- Bar Chart -->
  <rect x="90" y="280" width="50" height="90" rx="4" fill="#DDD6FE"/>
  <rect x="155" y="260" width="50" height="110" rx="4" fill="#DDD6FE"/>
  <rect x="220" y="300" width="50" height="70" rx="4" fill="#DDD6FE"/>
  <rect x="285" y="250" width="50" height="120" rx="4" fill="#7C3AED"/>
  <rect x="350" y="270" width="50" height="100" rx="4" fill="#DDD6FE"/>
  <rect x="415" y="290" width="50" height="80" rx="4" fill="#DDD6FE"/>
  <rect x="480" y="310" width="50" height="60" rx="4" fill="#DDD6FE"/>
  
  <!-- Labels -->
  <text x="105" y="385" fill="#9CA3AF" font-family="system-ui" font-size="9">Mon</text>
  <text x="170" y="385" fill="#9CA3AF" font-family="system-ui" font-size="9">Tue</text>
  <text x="235" y="385" fill="#9CA3AF" font-family="system-ui" font-size="9">Wed</text>
  <text x="300" y="385" fill="#7C3AED" font-family="system-ui" font-size="9" font-weight="600">Thu</text>
  <text x="365" y="385" fill="#9CA3AF" font-family="system-ui" font-size="9">Fri</text>
  <text x="430" y="385" fill="#9CA3AF" font-family="system-ui" font-size="9">Sat</text>
  <text x="495" y="385" fill="#9CA3AF" font-family="system-ui" font-size="9">Sun</text>
  
  <!-- Integration Cards Bottom -->
  <rect x="60" y="410" width="240" height="40" rx="10" fill="white" stroke="#E5E7EB" stroke-width="1"/>
  <circle cx="85" cy="430" r="12" fill="#FF5A00"/>
  <text x="105" y="435" fill="#374151" font-family="system-ui" font-size="11" font-weight="500">DoorDash Connected</text>
  <circle cx="275" cy="430" r="6" fill="#10B981"/>
  
  <rect x="315" y="410" width="240" height="40" rx="10" fill="white" stroke="#E5E7EB" stroke-width="1"/>
  <circle cx="340" cy="430" r="12" fill="#06C167"/>
  <text x="360" y="435" fill="#374151" font-family="system-ui" font-size="11" font-weight="500">UberEats Connected</text>
  <circle cx="530" cy="430" r="6" fill="#10B981"/>
  
  <!-- Side Panel - Orders -->
  <rect x="600" y="60" width="260" height="500" rx="24" fill="#1E1B4B"/>
  
  <text x="625" y="95" fill="white" font-family="system-ui" font-size="14" font-weight="600">Live Orders</text>
  <rect x="770" y="80" width="65" height="24" rx="12" fill="#7C3AED"/>
  <text x="782" y="96" fill="white" font-family="system-ui" font-size="10">12 new</text>
  
  <!-- Order Items -->
  <rect x="620" y="115" width="220" height="70" rx="12" fill="#312E81"/>
  <text x="638" y="140" fill="white" font-family="system-ui" font-size="12" font-weight="500">#4521 - DoorDash</text>
  <text x="638" y="160" fill="#A5B4FC" font-family="system-ui" font-size="10">2x Burger, 1x Fries, 1x Soda</text>
  <rect x="770" y="130" width="55" height="22" rx="6" fill="#10B981"/>
  <text x="780" y="145" fill="white" font-family="system-ui" font-size="9">Ready</text>
  
  <rect x="620" y="195" width="220" height="70" rx="12" fill="#312E81"/>
  <text x="638" y="220" fill="white" font-family="system-ui" font-size="12" font-weight="500">#4520 - UberEats</text>
  <text x="638" y="240" fill="#A5B4FC" font-family="system-ui" font-size="10">1x Salad Bowl, 2x Smoothie</text>
  <rect x="770" y="210" width="55" height="22" rx="6" fill="#F59E0B"/>
  <text x="777" y="225" fill="white" font-family="system-ui" font-size="9">Prepping</text>
  
  <rect x="620" y="275" width="220" height="70" rx="12" fill="#312E81"/>
  <text x="638" y="300" fill="white" font-family="system-ui" font-size="12" font-weight="500">#4519 - Grubhub</text>
  <text x="638" y="320" fill="#A5B4FC" font-family="system-ui" font-size="10">3x Tacos, 1x Nachos</text>
  <rect x="770" y="290" width="55" height="22" rx="6" fill="#6366F1"/>
  <text x="783" y="305" fill="white" font-family="system-ui" font-size="9">New</text>
  
  <rect x="620" y="355" width="220" height="70" rx="12" fill="#312E81"/>
  <text x="638" y="380" fill="white" font-family="system-ui" font-size="12" font-weight="500">#4518 - Pickup</text>
  <text x="638" y="400" fill="#A5B4FC" font-family="system-ui" font-size="10">1x Pizza Large, 2x Wings</text>
  <rect x="770" y="370" width="55" height="22" rx="6" fill="#10B981"/>
  <text x="780" y="385" fill="white" font-family="system-ui" font-size="9">Ready</text>
  
  <!-- Bottom Stats -->
  <rect x="620" y="440" width="220" height="100" rx="12" fill="rgba(124,58,237,0.3)"/>
  <text x="638" y="470" fill="white" font-family="system-ui" font-size="11">Todays Summary</text>
  <text x="638" y="495" fill="#C4B5FD" font-family="system-ui" font-size="10">Orders: 247 | Revenue: $4,812</text>
  <text x="638" y="520" fill="#C4B5FD" font-family="system-ui" font-size="10">Avg Time: 24 min | Rating: 4.8</text>
</svg>
