<svg xmlns="http://www.w3.org/2000/svg" xmlns:xlink="http://www.w3.org/1999/xlink" width="500" zoomAndPan="magnify" viewBox="0 0 375 374.999991" height="500" preserveAspectRatio="xMidYMid meet" version="1.0"><defs><g/><clipPath id="8edd8ddf68"><rect x="0" width="132" y="0" height="24"/></clipPath><clipPath id="3dc1d0bc75"><path d="M 61.308594 164.097656 L 128.058594 164.097656 L 128.058594 200.847656 L 61.308594 200.847656 Z M 61.308594 164.097656 " clip-rule="nonzero"/></clipPath></defs><g fill="#303030" fill-opacity="1"><g transform="translate(138.153437, 197.605681)"><g><path d="M 6.421875 0 L 6.421875 -3.609375 L 2.171875 -3.609375 L 2.171875 0 L 1.171875 0 L 1.171875 -8 L 2.171875 -8 L 2.171875 -4.5625 L 6.421875 -4.5625 L 6.421875 -8 L 7.421875 -8 L 7.421875 0 Z M 6.421875 0 "/></g></g></g><g fill="#303030" fill-opacity="1"><g transform="translate(149.340551, 197.605681)"><g><path d="M 4.15625 0.140625 C 3.1875 0.140625 2.429688 -0.160156 1.890625 -0.765625 C 1.347656 -1.367188 1.078125 -2.203125 1.078125 -3.265625 L 1.078125 -8 L 2.0625 -8 L 2.0625 -3.328125 C 2.0625 -2.515625 2.238281 -1.894531 2.59375 -1.46875 C 2.957031 -1.050781 3.476562 -0.84375 4.15625 -0.84375 C 5.550781 -0.84375 6.25 -1.671875 6.25 -3.328125 L 6.25 -8 L 7.265625 -8 L 7.265625 -3.265625 C 7.265625 -2.203125 6.988281 -1.367188 6.4375 -0.765625 C 5.882812 -0.160156 5.125 0.140625 4.15625 0.140625 Z M 4.15625 0.140625 "/></g></g></g><g fill="#303030" fill-opacity="1"><g transform="translate(160.276044, 197.605681)"><g><path d="M 1.171875 0 L 1.171875 -8 L 4.265625 -8 C 5.035156 -8 5.648438 -7.804688 6.109375 -7.421875 C 6.578125 -7.035156 6.8125 -6.519531 6.8125 -5.875 C 6.8125 -5.488281 6.71875 -5.144531 6.53125 -4.84375 C 6.34375 -4.550781 6.085938 -4.320312 5.765625 -4.15625 C 6.171875 -3.988281 6.484375 -3.738281 6.703125 -3.40625 C 6.921875 -3.082031 7.03125 -2.691406 7.03125 -2.234375 C 7.03125 -1.546875 6.796875 -1 6.328125 -0.59375 C 5.859375 -0.195312 5.222656 0 4.421875 0 Z M 2.171875 -0.9375 L 4.390625 -0.9375 C 4.910156 -0.9375 5.304688 -1.050781 5.578125 -1.28125 C 5.859375 -1.519531 6 -1.851562 6 -2.28125 C 6 -2.707031 5.859375 -3.035156 5.578125 -3.265625 C 5.296875 -3.503906 4.894531 -3.625 4.375 -3.625 L 2.171875 -3.625 Z M 2.171875 -4.546875 L 4.25 -4.546875 C 4.738281 -4.546875 5.113281 -4.65625 5.375 -4.875 C 5.644531 -5.09375 5.78125 -5.398438 5.78125 -5.796875 C 5.78125 -6.203125 5.644531 -6.515625 5.375 -6.734375 C 5.101562 -6.953125 4.726562 -7.0625 4.25 -7.0625 L 2.171875 -7.0625 Z M 2.171875 -4.546875 "/></g></g></g><g fill="#303030" fill-opacity="1"><g transform="translate(170.548157, 197.605681)"><g/></g></g><g fill="#303030" fill-opacity="1"><g transform="translate(175.982223, 197.605681)"><g><path d="M 3.828125 0.15625 C 3.191406 0.15625 2.640625 0.046875 2.171875 -0.171875 C 1.703125 -0.390625 1.335938 -0.695312 1.078125 -1.09375 C 0.828125 -1.488281 0.695312 -1.941406 0.6875 -2.453125 L 1.6875 -2.453125 C 1.707031 -1.941406 1.910156 -1.539062 2.296875 -1.25 C 2.691406 -0.957031 3.203125 -0.8125 3.828125 -0.8125 C 4.390625 -0.8125 4.835938 -0.921875 5.171875 -1.140625 C 5.503906 -1.359375 5.671875 -1.664062 5.671875 -2.0625 C 5.671875 -2.4375 5.507812 -2.738281 5.1875 -2.96875 C 4.875 -3.195312 4.351562 -3.394531 3.625 -3.5625 C 2.644531 -3.789062 1.925781 -4.085938 1.46875 -4.453125 C 1.007812 -4.828125 0.78125 -5.328125 0.78125 -5.953125 C 0.78125 -6.628906 1.035156 -7.164062 1.546875 -7.5625 C 2.066406 -7.957031 2.765625 -8.15625 3.640625 -8.15625 C 4.535156 -8.15625 5.242188 -7.929688 5.765625 -7.484375 C 6.285156 -7.035156 6.550781 -6.421875 6.5625 -5.640625 L 5.5625 -5.640625 C 5.5625 -6.117188 5.382812 -6.492188 5.03125 -6.765625 C 4.6875 -7.046875 4.222656 -7.1875 3.640625 -7.1875 C 3.066406 -7.1875 2.617188 -7.070312 2.296875 -6.84375 C 1.972656 -6.625 1.8125 -6.328125 1.8125 -5.953125 C 1.8125 -5.617188 1.957031 -5.335938 2.25 -5.109375 C 2.550781 -4.890625 3.09375 -4.6875 3.875 -4.5 C 4.894531 -4.25 5.625 -3.929688 6.0625 -3.546875 C 6.5 -3.171875 6.71875 -2.691406 6.71875 -2.109375 C 6.71875 -1.410156 6.453125 -0.859375 5.921875 -0.453125 C 5.398438 -0.046875 4.703125 0.15625 3.828125 0.15625 Z M 3.828125 0.15625 "/></g></g></g><g fill="#303030" fill-opacity="1"><g transform="translate(185.979839, 197.605681)"><g><path d="M 4.796875 0.15625 C 3.992188 0.15625 3.28125 -0.0195312 2.65625 -0.375 C 2.03125 -0.738281 1.539062 -1.234375 1.1875 -1.859375 C 0.832031 -2.484375 0.65625 -3.195312 0.65625 -4 C 0.65625 -4.820312 0.832031 -5.539062 1.1875 -6.15625 C 1.539062 -6.78125 2.03125 -7.269531 2.65625 -7.625 C 3.28125 -7.976562 3.992188 -8.15625 4.796875 -8.15625 C 5.617188 -8.15625 6.335938 -7.976562 6.953125 -7.625 C 7.578125 -7.269531 8.066406 -6.78125 8.421875 -6.15625 C 8.773438 -5.539062 8.953125 -4.820312 8.953125 -4 C 8.953125 -3.195312 8.773438 -2.484375 8.421875 -1.859375 C 8.066406 -1.234375 7.578125 -0.738281 6.953125 -0.375 C 6.335938 -0.0195312 5.617188 0.15625 4.796875 0.15625 Z M 1.6875 -4 C 1.6875 -3.382812 1.816406 -2.835938 2.078125 -2.359375 C 2.347656 -1.890625 2.71875 -1.519531 3.1875 -1.25 C 3.65625 -0.988281 4.191406 -0.859375 4.796875 -0.859375 C 5.421875 -0.859375 5.960938 -0.988281 6.421875 -1.25 C 6.890625 -1.519531 7.253906 -1.890625 7.515625 -2.359375 C 7.785156 -2.835938 7.921875 -3.382812 7.921875 -4 C 7.921875 -4.625 7.785156 -5.171875 7.515625 -5.640625 C 7.253906 -6.109375 6.890625 -6.472656 6.421875 -6.734375 C 5.960938 -7.003906 5.421875 -7.140625 4.796875 -7.140625 C 4.191406 -7.140625 3.65625 -7.003906 3.1875 -6.734375 C 2.71875 -6.472656 2.347656 -6.109375 2.078125 -5.640625 C 1.816406 -5.171875 1.6875 -4.625 1.6875 -4 Z M 1.6875 -4 "/></g></g></g><g fill="#303030" fill-opacity="1"><g transform="translate(198.184881, 197.605681)"><g><path d="M 1.171875 0 L 1.171875 -8 L 2.171875 -8 L 2.171875 -0.953125 L 6.0625 -0.953125 L 6.0625 0 Z M 1.171875 0 "/></g></g></g><g fill="#303030" fill-opacity="1"><g transform="translate(207.198877, 197.605681)"><g><path d="M 4.15625 0.140625 C 3.1875 0.140625 2.429688 -0.160156 1.890625 -0.765625 C 1.347656 -1.367188 1.078125 -2.203125 1.078125 -3.265625 L 1.078125 -8 L 2.0625 -8 L 2.0625 -3.328125 C 2.0625 -2.515625 2.238281 -1.894531 2.59375 -1.46875 C 2.957031 -1.050781 3.476562 -0.84375 4.15625 -0.84375 C 5.550781 -0.84375 6.25 -1.671875 6.25 -3.328125 L 6.25 -8 L 7.265625 -8 L 7.265625 -3.265625 C 7.265625 -2.203125 6.988281 -1.367188 6.4375 -0.765625 C 5.882812 -0.160156 5.125 0.140625 4.15625 0.140625 Z M 4.15625 0.140625 "/></g></g></g><g fill="#303030" fill-opacity="1"><g transform="translate(218.13437, 197.605681)"><g><path d="M 3.09375 0 L 3.09375 -7.046875 L 0.390625 -7.046875 L 0.390625 -8 L 6.8125 -8 L 6.8125 -7.046875 L 4.109375 -7.046875 L 4.109375 0 Z M 3.09375 0 "/></g></g></g><g fill="#303030" fill-opacity="1"><g transform="translate(227.93755, 197.605681)"><g><path d="M 1.171875 0 L 1.171875 -8 L 2.171875 -8 L 2.171875 0 Z M 1.171875 0 "/></g></g></g><g fill="#303030" fill-opacity="1"><g transform="translate(233.874859, 197.605681)"><g><path d="M 4.796875 0.15625 C 3.992188 0.15625 3.28125 -0.0195312 2.65625 -0.375 C 2.03125 -0.738281 1.539062 -1.234375 1.1875 -1.859375 C 0.832031 -2.484375 0.65625 -3.195312 0.65625 -4 C 0.65625 -4.820312 0.832031 -5.539062 1.1875 -6.15625 C 1.539062 -6.78125 2.03125 -7.269531 2.65625 -7.625 C 3.28125 -7.976562 3.992188 -8.15625 4.796875 -8.15625 C 5.617188 -8.15625 6.335938 -7.976562 6.953125 -7.625 C 7.578125 -7.269531 8.066406 -6.78125 8.421875 -6.15625 C 8.773438 -5.539062 8.953125 -4.820312 8.953125 -4 C 8.953125 -3.195312 8.773438 -2.484375 8.421875 -1.859375 C 8.066406 -1.234375 7.578125 -0.738281 6.953125 -0.375 C 6.335938 -0.0195312 5.617188 0.15625 4.796875 0.15625 Z M 1.6875 -4 C 1.6875 -3.382812 1.816406 -2.835938 2.078125 -2.359375 C 2.347656 -1.890625 2.71875 -1.519531 3.1875 -1.25 C 3.65625 -0.988281 4.191406 -0.859375 4.796875 -0.859375 C 5.421875 -0.859375 5.960938 -0.988281 6.421875 -1.25 C 6.890625 -1.519531 7.253906 -1.890625 7.515625 -2.359375 C 7.785156 -2.835938 7.921875 -3.382812 7.921875 -4 C 7.921875 -4.625 7.785156 -5.171875 7.515625 -5.640625 C 7.253906 -6.109375 6.890625 -6.472656 6.421875 -6.734375 C 5.960938 -7.003906 5.421875 -7.140625 4.796875 -7.140625 C 4.191406 -7.140625 3.65625 -7.003906 3.1875 -6.734375 C 2.71875 -6.472656 2.347656 -6.109375 2.078125 -5.640625 C 1.816406 -5.171875 1.6875 -4.625 1.6875 -4 Z M 1.6875 -4 "/></g></g></g><g fill="#303030" fill-opacity="1"><g transform="translate(246.079902, 197.605681)"><g><path d="M 1.171875 0 L 1.171875 -8 L 2.109375 -8 L 6.546875 -1.734375 L 6.546875 -8 L 7.53125 -8 L 7.53125 0 L 6.59375 0 L 2.15625 -6.265625 L 2.15625 0 Z M 1.171875 0 "/></g></g></g><g transform="matrix(1, 0, 0, 1, 132, 161)"><g clip-path="url(#8edd8ddf68)"><g fill="#303030" fill-opacity="1"><g transform="translate(1.008453, 16.779431)"><g><path d="M 1.3125 0 L 1.3125 -10.984375 L 6.015625 -10.984375 C 6.847656 -10.984375 7.570312 -10.832031 8.1875 -10.53125 C 8.800781 -10.226562 9.273438 -9.789062 9.609375 -9.21875 C 9.953125 -8.65625 10.125 -7.984375 10.125 -7.203125 C 10.125 -6.398438 9.9375 -5.707031 9.5625 -5.125 C 9.195312 -4.539062 8.6875 -4.101562 8.03125 -3.8125 L 10.3125 0 L 7.421875 0 L 5.453125 -3.421875 L 3.8125 -3.421875 L 3.8125 0 Z M 3.78125 -5.515625 L 5.671875 -5.515625 C 6.296875 -5.515625 6.769531 -5.660156 7.09375 -5.953125 C 7.425781 -6.242188 7.59375 -6.65625 7.59375 -7.1875 C 7.59375 -7.71875 7.425781 -8.125 7.09375 -8.40625 C 6.769531 -8.695312 6.296875 -8.84375 5.671875 -8.84375 L 3.78125 -8.84375 Z M 3.78125 -5.515625 "/></g></g></g><g fill="#303030" fill-opacity="1"><g transform="translate(15.856674, 16.779431)"><g><path d="M 5.078125 0.21875 C 4.203125 0.21875 3.425781 0.0351562 2.75 -0.328125 C 2.070312 -0.691406 1.546875 -1.203125 1.171875 -1.859375 C 0.796875 -2.515625 0.609375 -3.269531 0.609375 -4.125 C 0.609375 -4.976562 0.796875 -5.726562 1.171875 -6.375 C 1.554688 -7.03125 2.085938 -7.539062 2.765625 -7.90625 C 3.441406 -8.269531 4.222656 -8.453125 5.109375 -8.453125 C 6.054688 -8.453125 6.867188 -8.242188 7.546875 -7.828125 C 8.234375 -7.410156 8.753906 -6.820312 9.109375 -6.0625 C 9.472656 -5.3125 9.628906 -4.4375 9.578125 -3.4375 L 2.984375 -3.4375 C 3.097656 -2.875 3.347656 -2.441406 3.734375 -2.140625 C 4.117188 -1.835938 4.582031 -1.6875 5.125 -1.6875 C 5.519531 -1.6875 5.882812 -1.765625 6.21875 -1.921875 C 6.550781 -2.078125 6.816406 -2.289062 7.015625 -2.5625 L 9.421875 -2.5625 C 9.066406 -1.6875 8.507812 -1.003906 7.75 -0.515625 C 6.988281 -0.0234375 6.097656 0.21875 5.078125 0.21875 Z M 3 -4.9375 L 7.28125 -4.9375 C 7.144531 -5.4375 6.890625 -5.832031 6.515625 -6.125 C 6.148438 -6.414062 5.6875 -6.5625 5.125 -6.5625 C 4.601562 -6.5625 4.148438 -6.414062 3.765625 -6.125 C 3.390625 -5.832031 3.132812 -5.4375 3 -4.9375 Z M 3 -4.9375 "/></g></g></g><g fill="#303030" fill-opacity="1"><g transform="translate(29.842616, 16.779431)"><g><path d="M 4.359375 0.21875 C 3.609375 0.21875 2.953125 0.0976562 2.390625 -0.140625 C 1.828125 -0.378906 1.390625 -0.710938 1.078125 -1.140625 C 0.773438 -1.566406 0.625 -2.070312 0.625 -2.65625 L 2.96875 -2.65625 C 2.976562 -2.320312 3.109375 -2.050781 3.359375 -1.84375 C 3.609375 -1.644531 3.953125 -1.546875 4.390625 -1.546875 C 4.765625 -1.546875 5.054688 -1.617188 5.265625 -1.765625 C 5.472656 -1.910156 5.578125 -2.101562 5.578125 -2.34375 C 5.578125 -2.601562 5.4375 -2.816406 5.15625 -2.984375 C 4.875 -3.160156 4.414062 -3.300781 3.78125 -3.40625 C 2.738281 -3.59375 1.96875 -3.894531 1.46875 -4.3125 C 0.976562 -4.726562 0.734375 -5.28125 0.734375 -5.96875 C 0.734375 -6.769531 1.035156 -7.382812 1.640625 -7.8125 C 2.242188 -8.238281 3.097656 -8.453125 4.203125 -8.453125 C 5.296875 -8.453125 6.15625 -8.21875 6.78125 -7.75 C 7.40625 -7.28125 7.742188 -6.609375 7.796875 -5.734375 L 5.515625 -5.734375 C 5.492188 -6.054688 5.363281 -6.300781 5.125 -6.46875 C 4.894531 -6.644531 4.582031 -6.734375 4.1875 -6.734375 C 3.832031 -6.734375 3.550781 -6.664062 3.34375 -6.53125 C 3.144531 -6.394531 3.046875 -6.207031 3.046875 -5.96875 C 3.046875 -5.707031 3.175781 -5.503906 3.4375 -5.359375 C 3.707031 -5.222656 4.191406 -5.082031 4.890625 -4.9375 C 6.921875 -4.53125 7.9375 -3.660156 7.9375 -2.328125 C 7.9375 -1.535156 7.617188 -0.910156 6.984375 -0.453125 C 6.359375 -0.00390625 5.484375 0.21875 4.359375 0.21875 Z M 4.359375 0.21875 "/></g></g></g><g fill="#303030" fill-opacity="1"><g transform="translate(42.229422, 16.779431)"><g><path d="M 5.15625 0 C 4.113281 0 3.3125 -0.265625 2.75 -0.796875 C 2.1875 -1.335938 1.90625 -2.113281 1.90625 -3.125 L 1.90625 -6.296875 L 0.3125 -6.296875 L 0.3125 -8.234375 L 1.046875 -8.234375 C 1.492188 -8.234375 1.800781 -8.304688 1.96875 -8.453125 C 2.132812 -8.597656 2.25 -8.878906 2.3125 -9.296875 L 2.453125 -10.375 L 4.296875 -10.375 L 4.296875 -8.234375 L 6.5625 -8.234375 L 6.5625 -6.296875 L 4.296875 -6.296875 L 4.296875 -3.484375 C 4.296875 -2.546875 4.753906 -2.078125 5.671875 -2.078125 L 6.671875 -2.078125 L 6.671875 0 Z M 5.15625 0 "/></g></g></g><g fill="#303030" fill-opacity="1"><g transform="translate(53.362008, 16.779431)"><g><path d="M 3.9375 0.15625 C 2.96875 0.15625 2.195312 -0.0664062 1.625 -0.515625 C 1.0625 -0.972656 0.78125 -1.601562 0.78125 -2.40625 C 0.78125 -3.164062 1.035156 -3.769531 1.546875 -4.21875 C 2.054688 -4.675781 2.738281 -4.90625 3.59375 -4.90625 L 6.578125 -4.90625 L 6.578125 -5.28125 C 6.578125 -5.695312 6.425781 -6.023438 6.125 -6.265625 C 5.832031 -6.515625 5.453125 -6.640625 4.984375 -6.640625 C 4.597656 -6.640625 4.269531 -6.550781 4 -6.375 C 3.726562 -6.195312 3.554688 -5.957031 3.484375 -5.65625 L 1.1875 -5.65625 C 1.332031 -6.5625 1.738281 -7.253906 2.40625 -7.734375 C 3.070312 -8.210938 3.925781 -8.453125 4.96875 -8.453125 C 6.207031 -8.453125 7.171875 -8.140625 7.859375 -7.515625 C 8.554688 -6.898438 8.90625 -6.046875 8.90625 -4.953125 L 8.90625 0 L 7.140625 0 L 6.875 -0.953125 C 6.144531 -0.210938 5.164062 0.15625 3.9375 0.15625 Z M 3.140625 -2.5 C 3.140625 -2.21875 3.257812 -1.988281 3.5 -1.8125 C 3.75 -1.632812 4.078125 -1.546875 4.484375 -1.546875 C 5.078125 -1.546875 5.570312 -1.71875 5.96875 -2.0625 C 6.363281 -2.414062 6.570312 -2.867188 6.59375 -3.421875 L 4.328125 -3.421875 C 3.972656 -3.421875 3.6875 -3.335938 3.46875 -3.171875 C 3.25 -3.003906 3.140625 -2.78125 3.140625 -2.5 Z M 3.140625 -2.5 "/></g></g></g><g fill="#303030" fill-opacity="1"><g transform="translate(67.112786, 16.779431)"><g><path d="M 4.46875 0.21875 C 3.40625 0.21875 2.566406 -0.113281 1.953125 -0.78125 C 1.335938 -1.457031 1.03125 -2.367188 1.03125 -3.515625 L 1.03125 -8.234375 L 3.421875 -8.234375 L 3.421875 -3.75 C 3.421875 -3.144531 3.5625 -2.671875 3.84375 -2.328125 C 4.132812 -1.992188 4.53125 -1.828125 5.03125 -1.828125 C 5.570312 -1.828125 6.003906 -2.015625 6.328125 -2.390625 C 6.660156 -2.773438 6.828125 -3.289062 6.828125 -3.9375 L 6.828125 -8.234375 L 9.203125 -8.234375 L 9.203125 0 L 7.4375 0 L 7.1875 -0.921875 C 6.863281 -0.535156 6.460938 -0.25 5.984375 -0.0625 C 5.515625 0.125 5.007812 0.21875 4.46875 0.21875 Z M 4.46875 0.21875 "/></g></g></g><g fill="#303030" fill-opacity="1"><g transform="translate(81.318213, 16.779431)"><g><path d="M 1.1875 0 L 1.1875 -8.234375 L 2.96875 -8.234375 L 3.28125 -7.140625 C 3.550781 -7.523438 3.882812 -7.800781 4.28125 -7.96875 C 4.675781 -8.144531 5.175781 -8.234375 5.78125 -8.234375 L 6.6875 -8.234375 L 6.6875 -6.078125 L 5.765625 -6.078125 C 5.085938 -6.078125 4.550781 -5.890625 4.15625 -5.515625 C 3.769531 -5.148438 3.578125 -4.523438 3.578125 -3.640625 L 3.578125 0 Z M 1.1875 0 "/></g></g></g><g fill="#303030" fill-opacity="1"><g transform="translate(92.341056, 16.779431)"><g><path d="M 3.9375 0.15625 C 2.96875 0.15625 2.195312 -0.0664062 1.625 -0.515625 C 1.0625 -0.972656 0.78125 -1.601562 0.78125 -2.40625 C 0.78125 -3.164062 1.035156 -3.769531 1.546875 -4.21875 C 2.054688 -4.675781 2.738281 -4.90625 3.59375 -4.90625 L 6.578125 -4.90625 L 6.578125 -5.28125 C 6.578125 -5.695312 6.425781 -6.023438 6.125 -6.265625 C 5.832031 -6.515625 5.453125 -6.640625 4.984375 -6.640625 C 4.597656 -6.640625 4.269531 -6.550781 4 -6.375 C 3.726562 -6.195312 3.554688 -5.957031 3.484375 -5.65625 L 1.1875 -5.65625 C 1.332031 -6.5625 1.738281 -7.253906 2.40625 -7.734375 C 3.070312 -8.210938 3.925781 -8.453125 4.96875 -8.453125 C 6.207031 -8.453125 7.171875 -8.140625 7.859375 -7.515625 C 8.554688 -6.898438 8.90625 -6.046875 8.90625 -4.953125 L 8.90625 0 L 7.140625 0 L 6.875 -0.953125 C 6.144531 -0.210938 5.164062 0.15625 3.9375 0.15625 Z M 3.140625 -2.5 C 3.140625 -2.21875 3.257812 -1.988281 3.5 -1.8125 C 3.75 -1.632812 4.078125 -1.546875 4.484375 -1.546875 C 5.078125 -1.546875 5.570312 -1.71875 5.96875 -2.0625 C 6.363281 -2.414062 6.570312 -2.867188 6.59375 -3.421875 L 4.328125 -3.421875 C 3.972656 -3.421875 3.6875 -3.335938 3.46875 -3.171875 C 3.25 -3.003906 3.140625 -2.78125 3.140625 -2.5 Z M 3.140625 -2.5 "/></g></g></g><g fill="#303030" fill-opacity="1"><g transform="translate(106.091834, 16.779431)"><g><path d="M 1.1875 0 L 1.1875 -8.234375 L 2.96875 -8.234375 L 3.21875 -7.3125 C 3.550781 -7.695312 3.953125 -7.984375 4.421875 -8.171875 C 4.898438 -8.359375 5.414062 -8.453125 5.96875 -8.453125 C 7.039062 -8.453125 7.878906 -8.117188 8.484375 -7.453125 C 9.097656 -6.785156 9.40625 -5.878906 9.40625 -4.734375 L 9.40625 0 L 7.03125 0 L 7.03125 -4.484375 C 7.03125 -5.085938 6.882812 -5.5625 6.59375 -5.90625 C 6.3125 -6.25 5.910156 -6.421875 5.390625 -6.421875 C 4.847656 -6.421875 4.410156 -6.226562 4.078125 -5.84375 C 3.742188 -5.46875 3.578125 -4.957031 3.578125 -4.3125 L 3.578125 0 Z M 1.1875 0 "/></g></g></g><g fill="#303030" fill-opacity="1"><g transform="translate(120.344297, 16.779431)"><g><path d="M 5.15625 0 C 4.113281 0 3.3125 -0.265625 2.75 -0.796875 C 2.1875 -1.335938 1.90625 -2.113281 1.90625 -3.125 L 1.90625 -6.296875 L 0.3125 -6.296875 L 0.3125 -8.234375 L 1.046875 -8.234375 C 1.492188 -8.234375 1.800781 -8.304688 1.96875 -8.453125 C 2.132812 -8.597656 2.25 -8.878906 2.3125 -9.296875 L 2.453125 -10.375 L 4.296875 -10.375 L 4.296875 -8.234375 L 6.5625 -8.234375 L 6.5625 -6.296875 L 4.296875 -6.296875 L 4.296875 -3.484375 C 4.296875 -2.546875 4.753906 -2.078125 5.671875 -2.078125 L 6.671875 -2.078125 L 6.671875 0 Z M 5.15625 0 "/></g></g></g></g></g><g clip-path="url(#3dc1d0bc75)"><path fill="#f0531c" d="M 79.742188 164.097656 C 84.867188 164.097656 89.503906 166.191406 92.84375 169.566406 L 83.105469 179.304688 C 79.6875 176.996094 74.15625 177.757812 70.996094 186.078125 C 70.824219 186.523438 70.65625 186.972656 70.484375 187.421875 C 69.75 189.355469 70.140625 191.34375 71.53125 192.734375 C 72.921875 194.125 74.914062 194.519531 76.847656 193.78125 L 78.191406 193.273438 C 86.507812 190.109375 87.273438 184.582031 84.964844 181.164062 L 94.558594 171.566406 C 97.832031 168.292969 99.941406 166.109375 104.523438 164.800781 C 106.132812 164.34375 107.832031 164.097656 109.585938 164.097656 C 119.765625 164.097656 128.015625 172.347656 128.015625 182.523438 C 128.015625 192.699219 119.765625 200.949219 109.585938 200.949219 C 104.535156 200.949219 99.960938 198.917969 96.632812 195.625 L 105.664062 186.59375 C 106.433594 187.042969 107.308594 187.238281 108.253906 187.167969 C 109.613281 187.066406 110.738281 186.441406 111.546875 185.34375 L 119.519531 174.511719 L 119.085938 174.078125 L 110.882812 182.28125 C 110.746094 182.417969 110.519531 182.417969 110.382812 182.28125 C 110.246094 182.144531 110.246094 181.917969 110.382812 181.78125 L 118.585938 173.578125 L 117.953125 172.945312 L 109.75 181.148438 C 109.613281 181.285156 109.390625 181.285156 109.25 181.148438 C 109.113281 181.011719 109.113281 180.785156 109.25 180.648438 L 117.453125 172.445312 L 116.824219 171.8125 L 108.621094 180.015625 C 108.480469 180.15625 108.257812 180.15625 108.121094 180.015625 C 107.980469 179.878906 107.980469 179.65625 108.121094 179.515625 L 116.324219 171.316406 L 115.910156 170.902344 C 115.753906 170.992188 115.597656 171.09375 115.449219 171.203125 L 105.054688 178.851562 C 103.957031 179.660156 103.335938 180.789062 103.230469 182.144531 C 103.160156 183.089844 103.355469 183.964844 103.808594 184.734375 L 94.898438 193.644531 C 92.046875 196.277344 89.980469 198.332031 86.371094 199.722656 C 84.3125 200.515625 82.078125 200.949219 79.742188 200.949219 C 69.566406 200.949219 61.316406 192.699219 61.316406 182.523438 C 61.316406 172.347656 69.566406 164.097656 79.742188 164.097656 Z M 79.742188 164.097656 " fill-opacity="1" fill-rule="evenodd"/></g></svg>